# Blender v2.79 (sub 4) OBJ File: 'bucket.blend'
# www.blender.org
mtllib bucket.mtl
o Cube.009
v -2.903241 -0.229625 -3.454120
v -4.619999 9.668137 -4.385390
v -3.083814 -0.300940 -3.914889
v -4.800572 9.596823 -4.846159
v 0.178744 -0.229625 -4.656053
v -0.034108 9.668137 -5.979604
v -0.001829 -0.300940 -5.116821
v -0.214681 9.596823 -6.440372
vn -0.9173 -0.1235 0.3786
vn -0.3393 -0.1390 -0.9304
vn 0.9322 -0.0282 -0.3609
vn 0.3393 0.1390 0.9304
vn 0.0518 -0.9898 0.1329
vn -0.0469 0.9898 -0.1348
usemtl Material
s off
f 1//1 2//1 4//1 3//1
f 3//2 4//2 8//2 7//2
f 7//3 8//3 6//3 5//3
f 5//4 6//4 2//4 1//4
f 3//5 7//5 5//5 1//5
f 8//6 4//6 2//6 6//6
o Cube.008
v -4.684836 -0.229625 0.256198
v -6.090899 9.668137 0.129387
v -5.124998 -0.300939 0.029986
v -6.531061 9.596823 -0.096825
v -2.643327 -0.229624 -3.688027
v -4.369055 9.668137 -4.621302
v -3.083489 -0.300939 -3.914239
v -4.809216 9.596823 -4.847514
vn -0.4497 -0.0525 0.8916
vn -0.9053 -0.1642 -0.3918
vn 0.4576 -0.0041 -0.8891
vn 0.9053 0.1642 0.3918
vn 0.1267 -0.9898 0.0656
vn -0.1352 0.9896 -0.0490
usemtl Material
s off
f 9//7 10//7 12//7 11//7
f 11//8 12//8 16//8 15//8
f 15//9 16//9 14//9 13//9
f 13//10 14//10 10//10 9//10
f 11//11 15//11 13//11 9//11
f 16//12 12//12 10//12 14//12
o Cube.007
v -3.079710 -0.229625 3.227070
v -3.841617 9.458403 4.417583
v -3.526761 -0.300939 3.439345
v -4.288667 9.387089 4.629858
v -4.676510 -0.229625 -0.180844
v -6.092404 9.668137 -0.317628
v -5.123560 -0.300940 0.031431
v -6.539454 9.596823 -0.105354
vn 0.4375 -0.0757 0.8960
vn -0.8986 -0.1226 0.4214
vn -0.4184 -0.0724 -0.9054
vn 0.8986 0.1226 -0.4214
vn 0.1292 -0.9898 -0.0605
vn -0.1117 0.9890 0.0969
usemtl Material
s off
f 17//13 18//13 20//13 19//13
f 19//14 20//14 24//14 23//14
f 23//15 24//15 22//15 21//15
f 21//16 22//16 18//16 17//16
f 19//17 23//17 21//17 17//17
f 24//18 20//18 18//18 22//18
o Cube.006
v 0.262565 -0.229625 4.665421
v 0.881238 9.668138 6.167518
v 0.041747 -0.300940 5.108314
v 0.660421 9.596823 6.610411
v -3.305295 -0.229625 2.997286
v -4.078594 9.477767 4.190575
v -3.526113 -0.300940 3.440179
v -4.299411 9.406452 4.633467
vn 0.8960 -0.1208 0.4273
vn -0.3874 -0.1286 0.9129
vn -0.8938 -0.0161 -0.4482
vn 0.3874 0.1286 -0.9129
vn 0.0604 -0.9898 -0.1292
vn -0.0847 0.9895 0.1171
usemtl Material
s off
f 25//19 26//19 28//19 27//19
f 27//20 28//20 32//20 31//20
f 31//21 32//21 30//21 29//21
f 29//22 30//22 26//22 25//22
f 27//23 31//23 29//23 25//23
f 32//24 28//24 26//24 30//24
o Cube.005
v 2.948083 -0.229625 2.868187
v 4.567690 9.668137 3.358945
v 3.199257 -0.300939 3.294597
v 4.818865 9.596823 3.785355
v -0.208815 -0.229624 4.683645
v 0.415837 9.668138 6.188976
v 0.042360 -0.300939 5.110055
v 0.667011 9.596823 6.615386
vn 0.8477 -0.1130 -0.5183
vn 0.5308 -0.1444 0.8351
vn -0.8630 -0.0223 0.5046
vn -0.5308 0.1444 -0.8351
vn -0.0711 -0.9898 -0.1236
vn 0.0805 0.9897 0.1181
usemtl Material
s off
f 33//25 34//25 36//25 35//25
f 35//26 36//26 40//26 39//26
f 39//27 40//27 38//27 37//27
f 37//28 38//28 34//28 33//28
f 35//29 39//29 37//29 33//29
f 40//30 36//30 34//30 38//30
o Cube.004
v 4.883134 -0.229625 -0.207425
v 6.224323 9.668138 -0.311978
v 5.306444 -0.300940 0.048941
v 6.647633 9.596823 -0.055613
v 2.775054 -0.229625 3.038173
v 4.427194 9.668137 3.555992
v 3.198363 -0.300939 3.294539
v 4.850504 9.596823 3.812357
vn 0.5068 -0.0777 -0.8585
vn 0.8678 -0.1412 0.4764
vn -0.5126 0.0407 0.8577
vn -0.8678 0.1412 -0.4764
vn -0.1197 -0.9898 -0.0777
vn 0.1301 0.9897 0.0605
usemtl Material
s off
f 41//31 42//31 44//31 43//31
f 43//32 44//32 48//32 47//32
f 47//33 48//33 46//33 45//33
f 45//34 46//34 42//34 41//34
f 43//35 47//35 45//35 41//35
f 48//36 44//36 42//36 46//36
o Cube.003
v 3.297884 -0.229625 -3.175696
v 3.874105 9.668138 -4.644772
v 3.735249 -0.300939 -3.407269
v 4.311470 9.596823 -4.876345
v 4.870544 -0.229624 0.279706
v 6.200847 9.668137 0.179429
v 5.307909 -0.300939 0.048134
v 6.638212 9.596823 -0.052144
vn -0.4784 -0.1016 -0.8722
vn 0.8981 -0.1200 -0.4230
vn 0.4605 -0.0529 0.8861
vn -0.8981 0.1200 0.4230
vn -0.1300 -0.9897 0.0592
vn 0.1286 0.9898 -0.0620
usemtl Material
s off
f 49//37 50//37 52//37 51//37
f 51//38 52//38 56//38 55//38
f 55//39 56//39 54//39 53//39
f 53//40 54//40 50//40 49//40
f 51//41 55//41 53//41 49//41
f 56//42 52//42 50//42 54//42
o Cube.001
v -0.205673 -0.253086 -4.673238
v -0.421672 9.678621 -5.989759
v -0.002111 -0.311422 -5.126184
v -0.218111 9.620285 -6.442705
v 3.537694 -0.253086 -2.963021
v 4.112598 9.678619 -4.432537
v 3.741256 -0.311422 -3.415966
v 4.316160 9.620285 -4.885482
vn -0.9132 -0.0730 -0.4010
vn 0.3638 -0.1358 -0.9215
vn 0.9125 0.0077 0.4091
vn -0.3638 0.1358 0.9215
vn -0.0485 -0.9932 0.1061
vn 0.0381 0.9931 -0.1108
usemtl Material
s off
f 57//43 58//43 60//43 59//43
f 59//44 60//44 64//44 63//44
f 63//45 64//45 62//45 61//45
f 61//46 62//46 58//46 57//46
f 59//47 63//47 61//47 57//47
f 64//48 60//48 58//48 62//48
o Cube
v 3.653361 -0.500000 -3.323885
v 3.072400 -0.500000 3.199211
v -3.448024 -0.500000 3.295008
v -2.952471 -0.500000 -3.830003
v 3.653364 0.500000 -3.323883
v 3.072396 0.500000 3.199214
v -3.448026 0.500000 3.295007
v -2.952473 0.500000 -3.830001
v 0.000001 -0.500000 -5.000000
v 0.000001 0.500000 -4.999999
v 5.000000 -0.500000 0.000000
v 5.000000 0.500000 0.000003
v 0.000000 -0.500000 5.000000
v -0.000003 0.500000 5.000000
v -5.000000 -0.500000 -0.000001
v -5.000000 0.500000 -0.000001
vn 0.0000 -1.0000 0.0000
vn 0.0000 1.0000 -0.0000
vn 0.8565 0.0000 0.5161
vn -0.4433 -0.0000 0.8964
vn -0.8819 -0.0000 -0.4715
vn -0.3684 0.0000 -0.9297
vn 0.4170 0.0000 -0.9089
vn 0.9268 -0.0000 -0.3755
vn 0.5057 -0.0000 0.8627
vn -0.9047 -0.0000 0.4261
usemtl Material
s off
f 65//49 75//49 66//49 77//49 67//49 79//49 68//49 73//49
f 69//50 74//50 72//50 80//50 71//50 78//50 70//50 76//50
f 75//51 76//51 70//51 66//51
f 77//52 78//52 71//52 67//52
f 79//53 80//53 72//53 68//53
f 74//54 73//54 68//54 72//54
f 69//55 65//55 73//55 74//55
f 65//56 69//56 76//56 75//56
f 66//57 70//57 78//57 77//57
f 67//58 71//58 80//58 79//58
